STARTFONT 2.1
COMMENT
COMMENT Copyright (c) Stephen Petykowski (https://github.com/petykowski/London-Underground-Dot-Matrix-Typeface).
COMMENT
COMMENT This Font Software is licensed under the SIL Open Font License, Version 1.1.
COMMENT This license is copied below, and is also available with a FAQ at:
COMMENT https://openfontlicense.org
COMMENT
COMMENT
COMMENT -----------------------------------------------------------
COMMENT SIL OPEN FONT LICENSE Version 1.1 - 26 February 2007
COMMENT -----------------------------------------------------------
COMMENT
COMMENT PREAMBLE
COMMENT The goals of the Open Font License (OFL) are to stimulate worldwide
COMMENT development of collaborative font projects, to support the font creation
COMMENT efforts of academic and linguistic communities, and to provide a free and
COMMENT open framework in which fonts may be shared and improved in partnership
COMMENT with others.
COMMENT
COMMENT The OFL allows the licensed fonts to be used, studied, modified and
COMMENT redistributed freely as long as they are not sold by themselves. The
COMMENT fonts, including any derivative works, can be bundled, embedded,
COMMENT redistributed and/or sold with any software provided that any reserved
COMMENT names are not used by derivative works. The fonts and derivatives,
COMMENT however, cannot be released under any other type of license. The
COMMENT requirement for fonts to remain under this license does not apply
COMMENT to any document created using the fonts or their derivatives.
COMMENT
COMMENT DEFINITIONS
COMMENT "Font Software" refers to the set of files released by the Copyright
COMMENT Holder(s) under this license and clearly marked as such. This may
COMMENT include source files, build scripts and documentation.
COMMENT
COMMENT "Reserved Font Name" refers to any names specified as such after the
COMMENT copyright statement(s).
COMMENT
COMMENT "Original Version" refers to the collection of Font Software components as

STARTCHAR 0020
ENCODING 32
SWIDTH 555 0
DWIDTH 5 0
BBX 0 0 0 0
BITMAP
ENDCHAR
STARTCHAR 0026
ENCODING 38
SWIDTH 777 0
DWIDTH 7 0
BBX 6 8 0 -1
BITMAP
60
90
90
60
60
94
88
74
ENDCHAR
STARTCHAR 0027
ENCODING 39
SWIDTH 333 0
DWIDTH 3 0
BBX 2 4 0 4
BITMAP
C0
C0
40
80
ENDCHAR
STARTCHAR 002A
ENCODING 42
SWIDTH 666 0
DWIDTH 6 0
BBX 5 7 0 0
BITMAP
20
A8
70
F8
70
A8
20
ENDCHAR
STARTCHAR 002B
ENCODING 43
SWIDTH 666 0
DWIDTH 6 0
BBX 5 5 0 1
BITMAP
20
20
F8
20
20
ENDCHAR
STARTCHAR 002C
ENCODING 44
SWIDTH 222 0
DWIDTH 2 0
BBX 2 4 0 -2
BITMAP
C0
C0
40
80
ENDCHAR
STARTCHAR 002D
ENCODING 45
SWIDTH 666 0
DWIDTH 6 0
BBX 5 1 0 3
BITMAP
F8
ENDCHAR
STARTCHAR 002E
ENCODING 46
SWIDTH 222 0
DWIDTH 2 0
BBX 2 2 0 0
BITMAP
C0
C0
ENDCHAR
STARTCHAR 0030
ENCODING 48
SWIDTH 777 0
DWIDTH 7 0
BBX 6 9 0 -1
BITMAP
78
84
84
84
84
84
84
84
78
ENDCHAR
STARTCHAR 0031
ENCODING 49
SWIDTH 777 0
DWIDTH 7 0
BBX 2 9 2 -1
BITMAP
40
C0
40
40
40
40
40
40
40
ENDCHAR
STARTCHAR 0032
ENCODING 50
SWIDTH 777 0
DWIDTH 7 0
BBX 6 9 0 -1
BITMAP
78
84
04
04
08
10
20
40
FC
ENDCHAR
STARTCHAR 0033
ENCODING 51
SWIDTH 777 0
DWIDTH 7 0
BBX 6 9 0 -1
BITMAP
78
84
04
04
38
04
04
84
78
ENDCHAR
STARTCHAR 0034
ENCODING 52
SWIDTH 777 0
DWIDTH 7 0
BBX 6 9 0 -1
BITMAP
08
18
28
48
88
FC
08
08
08
ENDCHAR
STARTCHAR 0035
ENCODING 53
SWIDTH 777 0
DWIDTH 7 0
BBX 6 9 0 -1
BITMAP
FC
80
80
F8
04
04
04
84
78
ENDCHAR
STARTCHAR 0036
ENCODING 54
SWIDTH 777 0
DWIDTH 7 0
BBX 6 9 0 -1
BITMAP
78
84
80
F8
84
84
84
84
78
ENDCHAR
STARTCHAR 0037
ENCODING 55
SWIDTH 777 0
DWIDTH 7 0
BBX 6 9 0 -1
BITMAP
FC
04
04
08
10
20
40
80
80
ENDCHAR
STARTCHAR 0038
ENCODING 56
SWIDTH 777 0
DWIDTH 7 0
BBX 6 9 0 -1
BITMAP
78
84
84
84
78
84
84
84
78
ENDCHAR
STARTCHAR 0039
ENCODING 57
SWIDTH 777 0
DWIDTH 7 0
BBX 6 9 0 -1
BITMAP
78
84
84
84
7C
04
04
84
78
ENDCHAR
STARTCHAR 003A
ENCODING 58
SWIDTH 222 0
DWIDTH 2 0
BBX 2 5 0 1
BITMAP
C0
C0
00
C0
C0
ENDCHAR
STARTCHAR 0041
ENCODING 65
SWIDTH 777 0
DWIDTH 7 0
BBX 6 9 0 -1
BITMAP
78
84
84
84
FC
84
84
84
84
ENDCHAR
STARTCHAR 0042
ENCODING 66
SWIDTH 777 0
DWIDTH 7 0
BBX 6 9 0 -1
BITMAP
F8
84
84
84
F8
84
84
84
F8
ENDCHAR
STARTCHAR 0043
ENCODING 67
SWIDTH 777 0
DWIDTH 7 0
BBX 6 9 0 -1
BITMAP
78
84
80
80
80
80
80
84
78
ENDCHAR
STARTCHAR 0044
ENCODING 68
SWIDTH 777 0
DWIDTH 7 0
BBX 6 9 0 -1
BITMAP
F8
84
84
84
84
84
84
84
F8
ENDCHAR
STARTCHAR 0045
ENCODING 69
SWIDTH 777 0
DWIDTH 7 0
BBX 6 9 0 -1
BITMAP
FC
80
80
80
FC
80
80
80
FC
ENDCHAR
STARTCHAR 0046
ENCODING 70
SWIDTH 777 0
DWIDTH 7 0
BBX 6 9 0 -1
BITMAP
FC
80
80
80
FC
80
80
80
80
ENDCHAR
STARTCHAR 0047
ENCODING 71
SWIDTH 777 0
DWIDTH 7 0
BBX 6 9 0 -1
BITMAP
78
84
80
80
BC
84
84
84
78
ENDCHAR
STARTCHAR 0048
ENCODING 72
SWIDTH 777 0
DWIDTH 7 0
BBX 6 9 0 -1
BITMAP
84
84
84
84
FC
84
84
84
84
ENDCHAR
STARTCHAR 0049
ENCODING 73
SWIDTH 444 0
DWIDTH 4 0
BBX 3 9 0 -1
BITMAP
E0
40
40
40
40
40
40
40
E0
ENDCHAR
STARTCHAR 004A
ENCODING 74
SWIDTH 666 0
DWIDTH 6 0
BBX 5 9 0 -1
BITMAP
08
08
08
08
08
08
88
88
70
ENDCHAR
STARTCHAR 004B
ENCODING 75
SWIDTH 777 0
DWIDTH 7 0
BBX 6 9 0 -1
BITMAP
84
88
90
A0
C0
A0
90
88
84
ENDCHAR
STARTCHAR 004C
ENCODING 76
SWIDTH 777 0
DWIDTH 7 0
BBX 6 9 0 -1
BITMAP
80
80
80
80
80
80
80
80
FC
ENDCHAR
STARTCHAR 004D
ENCODING 77
SWIDTH 777 0
DWIDTH 8 0
BBX 7 9 0 -1
BITMAP
82
C6
AA
92
92
82
82
82
82
ENDCHAR
STARTCHAR 004E
ENCODING 78
SWIDTH 777 0
DWIDTH 7 0
BBX 6 9 0 -1
BITMAP
84
84
C4
A4
94
8C
84
84
84
ENDCHAR
STARTCHAR 004F
ENCODING 79
SWIDTH 777 0
DWIDTH 7 0
BBX 6 9 0 -1
BITMAP
78
84
84
84
84
84
84
84
78
ENDCHAR
STARTCHAR 0050
ENCODING 80
SWIDTH 777 0
DWIDTH 7 0
BBX 6 9 0 -1
BITMAP
F8
84
84
84
F8
80
80
80
80
ENDCHAR
STARTCHAR 0051
ENCODING 81
SWIDTH 777 0
DWIDTH 7 0
BBX 6 10 0 -2
BITMAP
78
84
84
84
84
84
84
94
78
04
ENDCHAR
STARTCHAR 0052
ENCODING 82
SWIDTH 777 0
DWIDTH 7 0
BBX 6 9 0 -1
BITMAP
F8
84
84
84
F8
A0
90
88
84
ENDCHAR
STARTCHAR 0053
ENCODING 83
SWIDTH 777 0
DWIDTH 7 0
BBX 6 9 0 -1
BITMAP
78
84
80
80
78
04
04
84
78
ENDCHAR
STARTCHAR 0054
ENCODING 84
SWIDTH 777 0
DWIDTH 8 0
BBX 7 9 0 -1
BITMAP
FE
10
10
10
10
10
10
10
10
ENDCHAR
STARTCHAR 0055
ENCODING 85
SWIDTH 777 0
DWIDTH 7 0
BBX 6 9 0 -1
BITMAP
84
84
84
84
84
84
84
84
78
ENDCHAR
STARTCHAR 0056
ENCODING 86
SWIDTH 777 0
DWIDTH 8 0
BBX 7 9 0 -1
BITMAP
82
82
82
82
82
82
44
28
10
ENDCHAR
STARTCHAR 0057
ENCODING 87
SWIDTH 777 0
DWIDTH 8 0
BBX 7 9 0 -1
BITMAP
82
82
82
82
92
92
92
AA
44
ENDCHAR
STARTCHAR 0058
ENCODING 88
SWIDTH 1000 0
DWIDTH 9 0
BBX 7 9 0 -1
BITMAP
82
82
44
28
10
28
44
82
82
ENDCHAR
STARTCHAR 0059
ENCODING 89
SWIDTH 777 0
DWIDTH 8 0
BBX 7 9 0 -1
BITMAP
82
44
28
10
10
10
10
10
10
ENDCHAR
STARTCHAR 005A
ENCODING 90
SWIDTH 777 0
DWIDTH 8 0
BBX 7 9 0 -1
BITMAP
FE
02
04
08
10
20
40
80
FE
ENDCHAR
STARTCHAR 0061
ENCODING 97
SWIDTH 666 0
DWIDTH 6 0
BBX 5 6 0 0
BITMAP
70
08
78
88
88
78
ENDCHAR
STARTCHAR 0062
ENCODING 98
SWIDTH 666 0
DWIDTH 6 0
BBX 5 8 0 0
BITMAP
80
80
F0
88
88
88
88
F0
ENDCHAR
STARTCHAR 0063
ENCODING 99
SWIDTH 666 0
DWIDTH 6 0
BBX 5 6 0 0
BITMAP
70
88
80
80
88
70
ENDCHAR
STARTCHAR 0064
ENCODING 100
SWIDTH 666 0
DWIDTH 6 0
BBX 5 8 0 0
BITMAP
08
08
78
88
88
88
88
78
ENDCHAR
STARTCHAR 0065
ENCODING 101
SWIDTH 666 0
DWIDTH 6 0
BBX 5 6 0 0
BITMAP
70
88
F8
80
88
70
ENDCHAR
STARTCHAR 0066
ENCODING 102
SWIDTH 555 0
DWIDTH 5 0
BBX 4 8 0 0
BITMAP
30
40
E0
40
40
40
40
40
ENDCHAR
STARTCHAR 0067
ENCODING 103
SWIDTH 666 0
DWIDTH 6 0
BBX 5 8 0 -2
BITMAP
70
88
88
88
88
78
08
70
ENDCHAR
STARTCHAR 0068
ENCODING 104
SWIDTH 666 0
DWIDTH 6 0
BBX 5 8 0 0
BITMAP
80
80
F0
88
88
88
88
88
ENDCHAR
STARTCHAR 0069
ENCODING 105
SWIDTH 222 0
DWIDTH 2 0
BBX 1 8 0 0
BITMAP
80
00
80
80
80
80
80
80
ENDCHAR
STARTCHAR 006A
ENCODING 106
SWIDTH 444 0
DWIDTH 4 0
BBX 3 10 0 -2
BITMAP
20
00
20
20
20
20
20
20
20
C0
ENDCHAR
STARTCHAR 006B
ENCODING 107
SWIDTH 666 0
DWIDTH 6 0
BBX 5 8 0 0
BITMAP
80
80
90
A0
C0
A0
90
88
ENDCHAR
STARTCHAR 006C
ENCODING 108
SWIDTH 444 0
DWIDTH 4 0
BBX 3 8 0 0
BITMAP
80
80
80
80
80
80
80
60
ENDCHAR
STARTCHAR 006D
ENCODING 109
SWIDTH 777 0
DWIDTH 8 0
BBX 7 6 0 0
BITMAP
EC
92
92
92
92
92
ENDCHAR
STARTCHAR 006E
ENCODING 110
SWIDTH 666 0
DWIDTH 6 0
BBX 5 6 0 0
BITMAP
F0
88
88
88
88
88
ENDCHAR
STARTCHAR 006F
ENCODING 111
SWIDTH 666 0
DWIDTH 6 0
BBX 5 6 0 0
BITMAP
70
88
88
88
88
70
ENDCHAR
STARTCHAR 0070
ENCODING 112
SWIDTH 666 0
DWIDTH 6 0
BBX 5 8 0 -2
BITMAP
F0
88
88
88
88
F0
80
80
ENDCHAR
STARTCHAR 0071
ENCODING 113
SWIDTH 666 0
DWIDTH 6 0
BBX 5 8 0 -2
BITMAP
78
88
88
88
88
78
08
08
ENDCHAR
STARTCHAR 0072
ENCODING 114
SWIDTH 555 0
DWIDTH 5 0
BBX 4 6 0 0
BITMAP
B0
C0
80
80
80
80
ENDCHAR
STARTCHAR 0073
ENCODING 115
SWIDTH 666 0
DWIDTH 6 0
BBX 5 6 0 0
BITMAP
70
80
70
08
88
70
ENDCHAR
STARTCHAR 0074
ENCODING 116
SWIDTH 555 0
DWIDTH 5 0
BBX 4 8 0 0
BITMAP
40
40
F0
40
40
40
40
30
ENDCHAR
STARTCHAR 0075
ENCODING 117
SWIDTH 666 0
DWIDTH 6 0
BBX 5 6 0 0
BITMAP
88
88
88
88
88
78
ENDCHAR
STARTCHAR 0076
ENCODING 118
SWIDTH 666 0
DWIDTH 6 0
BBX 5 6 0 0
BITMAP
88
88
88
88
50
20
ENDCHAR
STARTCHAR 0077
ENCODING 119
SWIDTH 777 0
DWIDTH 8 0
BBX 7 6 0 0
BITMAP
82
82
82
92
AA
44
ENDCHAR
STARTCHAR 0078
ENCODING 120
SWIDTH 666 0
DWIDTH 6 0
BBX 5 6 0 0
BITMAP
88
50
20
20
50
88
ENDCHAR
STARTCHAR 0079
ENCODING 121
SWIDTH 666 0
DWIDTH 6 0
BBX 5 8 0 -2
BITMAP
88
88
88
88
88
78
08
F0
ENDCHAR
STARTCHAR 007A
ENCODING 122
SWIDTH 666 0
DWIDTH 6 0
BBX 5 6 0 0
BITMAP
F8
10
20
20
40
F8
ENDCHAR
ENDFONT
